<svg xmlns="http://www.w3.org/2000/svg" viewBox="0 0 48 48" xmlns:xlink="http://www.w3.org/1999/xlink" xml:space="preserve" width="100%" height="100%"><path xmlns="http://www.w3.org/2000/svg" d="M42 24a2 2 0 0 0-2 2v12a2 2 0 0 1-2 2H10a2 2 0 0 1-2-2V10a2 2 0 0 1 2-2h12a2 2 0 0 0 0-4H10a6 6 0 0 0-6 6v28a6 6 0 0 0 6 6h28a6 6 0 0 0 6-6V26a2 2 0 0 0-2-2m-30 1.52V34a2 2 0 0 0 2 2h8.48a2 2 0 0 0 1.42-.58l13.84-13.86L43.42 16a2 2 0 0 0 0-2.84l-8.48-8.58a2 2 0 0 0-2.84 0l-5.64 5.66L12.58 24.1a2 2 0 0 0-.58 1.42m21.52-16.7 5.66 5.66-2.84 2.84-5.66-5.66zM16 26.34l11.86-11.86 5.66 5.66L21.66 32H16z"></path></svg>