<svg xmlns="http://www.w3.org/2000/svg" viewBox="0 0 48 48" xmlns:xlink="http://www.w3.org/1999/xlink" xml:space="preserve" width="100%" height="100%"><path xmlns="http://www.w3.org/2000/svg" fill-rule="evenodd" d="M2 26a2 2 0 0 1 0-4h.832a10.002 10.002 0 0 1 17.756-1.126A6.94 6.94 0 0 1 24 20a6.94 6.94 0 0 1 3.412.874A10.002 10.002 0 0 1 45.168 22H46a2 2 0 0 1 0 4 10 10 0 1 1-19.95-1H26c0-.406-.79-1-2-1s-2 .594-2 1h-.05A10 10 0 1 1 2 26m10 6a6 6 0 1 0 0-12 6 6 0 0 0 0 12m24 0a6 6 0 1 0 0-12 6 6 0 0 0 0 12"></path></svg>