<?xml version="1.0" encoding="UTF-8" standalone="no"?>
<svg
   viewBox="0 0 714.58691 136.27875"
   xml:space="preserve"
   width="714.58691"
   height="136.27875"
   version="1.1"
   id="svg1"
   sodipodi:docname="atlas-logo.svg"
   inkscape:version="1.4.3 (0d15f75, 2025-12-25)"
   xmlns:inkscape="http://www.inkscape.org/namespaces/inkscape"
   xmlns:sodipodi="http://sodipodi.sourceforge.net/DTD/sodipodi-0.dtd"
   xmlns="http://www.w3.org/2000/svg"
   xmlns:svg="http://www.w3.org/2000/svg"><defs
     id="defs1"><rect
       x="188.5426"
       y="9.6806717"
       width="55.318127"
       height="30.885954"
       id="rect8" /><inkscape:path-effect
       effect="spiro"
       id="path-effect5"
       is_visible="true"
       lpeversion="1" /><rect
       x="74.679466"
       y="-20.283314"
       width="56.240093"
       height="37.80072"
       id="rect4" /><rect
       x="53.47419"
       y="14.7515"
       width="128.15366"
       height="31.346937"
       id="rect2" /></defs><sodipodi:namedview
     id="namedview1"
     pagecolor="#ffffff"
     bordercolor="#000000"
     borderopacity="0.25"
     inkscape:showpageshadow="2"
     inkscape:pageopacity="0.0"
     inkscape:pagecheckerboard="0"
     inkscape:deskcolor="#d1d1d1"
     inkscape:zoom="1.5339061"
     inkscape:cx="345.84906"
     inkscape:cy="113.76185"
     inkscape:window-width="1821"
     inkscape:window-height="1057"
     inkscape:window-x="2011"
     inkscape:window-y="-8"
     inkscape:window-maximized="1"
     inkscape:current-layer="svg1" /><g
     id="g6"
     transform="matrix(2.8712586,0,0,2.8712586,10.411685,-0.87182154)"><path
       style="fill:#efe4b0;fill-opacity:1;stroke:none;stroke-width:0.261345;paint-order:fill markers stroke"
       d="M 6.748226,40.27218 6.182473,39.706427 V 24.0072 c 0,-13.140525 0.01795,-15.72142 0.440245,-16.24337 0.436331,-0.539304 4.48733,-0.5447601 9.735669,-0.613621 6.323391,-0.082966 6.076454,-0.1852682 7.089548,2.937096 0.34721,1.070107 0.870756,2.185113 1.163434,2.477791 l 0.532143,0.532143 h 5.742442 9.742442 l 0.550478,0.550478 c 0.302763,0.302763 0.614667,0.899161 0.693122,1.32533 0.07845,0.426168 0.104859,7.269832 0.0729,12.763789 l -0.06974,11.988937 -0.646706,0.556081 -0.646708,0.55608 H 23.947858 7.31398 Z"
       id="path2"
       sodipodi:nodetypes="ccssssscccssscccccc" /><path
       d="m 12,24 h 4 v 4 h -4 z m 8,0 h 4 v 4 h -4 z m 11.996,-0.126 2.476,-2.474 2.12,2.12 -2.474,2.476 2.474,2.476 -2.12,2.12 -2.476,-2.474 -2.474,2.474 L 27.4,28.472 29.874,25.996 27.4,23.522 29.52,21.4 Z"
       id="path1"
       sodipodi:nodetypes="ccccccccccccccccccccccc"
       inkscape:label="path1"
       style="display:inline;fill:#000000" /><path
       d="M 38,11.000022 H 25.44 L 24.8,9.0000223 a 6,6 0 0 0 -5.68,-4 H 10 A 6,6 0 0 0 4,11.000022 v 26 a 6,6 0 0 0 6,6 h 28 a 6,6 0 0 0 6,-6 v -20 a 6,6 0 0 0 -6,-6 m 2,26 a 2,2 0 0 1 -2,2 H 10 a 2,2 0 0 1 -2,-2 v -26 a 2,2 0 0 1 2,-1.9999997 h 9.12 a 2,2 0 0 1 1.9,1.3599997 l 1.08,3.28 a 2,2 0 0 0 1.9,1.36 h 14 a 2,2 0 0 1 2,2 z"
       id="path1-8"
       style="display:inline" /></g><path
     id="text2"
     style="font-style:normal;font-variant:normal;font-weight:normal;font-stretch:normal;font-size:26.6667px;font-family:'Calisto MT';-inkscape-font-specification:'Calisto MT, Normal';font-variant-ligatures:normal;font-variant-caps:normal;font-variant-numeric:normal;font-variant-east-asian:normal;writing-mode:lr-tb;direction:ltr;white-space:pre;shape-inside:url(#rect2);display:inline;fill:#000000;fill-opacity:1;stroke:none;stroke-width:3.25561;paint-order:fill markers stroke"
     d="m 263.67688,42.359688 c -4.21145,2.172929 -8.67221,3.796516 -13.16741,5.27145 0,1.938473 0,3.876949 0,5.815422 1.99506,-0.218586 4.08668,-0.834974 6.03412,-0.745856 0.23933,5.953437 0.0783,12.526248 0.1703,18.729188 -0.0716,7.372724 0.13313,14.764147 -0.20955,22.124561 -1.86802,0.767482 -3.82106,1.297887 -5.73691,1.929127 0.69448,-1.709915 1.24815,-3.471909 1.86744,-5.209764 -2.08802,0 -4.17604,0 -6.26405,0 -2.92516,7.345228 -8.02588,14.087304 -15.2758,17.572744 -11.07512,5.56624 -26.0991,3.70142 -34.38219,-5.89141 -8.03323,-9.716468 -8.00288,-24.087215 -2.66813,-35.071901 4.38999,-9.964709 14.55354,-17.299414 25.56335,-17.405538 8.50963,-0.421062 17.75724,3.818739 21.1292,12.014233 3.76214,8.680116 1.61891,19.218686 -4.03579,26.581989 -2.10306,2.339906 -4.99074,4.737921 -8.27601,4.712235 -1.11289,-1.245825 0.2201,-3.213576 0.28018,-4.692866 2.37215,-9.277393 5.2657,-18.411526 7.90739,-27.614401 -3.4039,0.479285 -6.8084,0.954397 -10.21203,1.435629 -0.10855,1.878136 -1.48722,-0.535665 -2.46749,-0.543971 -5.40911,-2.196039 -11.00104,1.225924 -14.95479,4.739701 -6.04444,5.454872 -10.3201,13.116693 -11.23423,21.247434 -0.62653,4.890827 1.74685,10.673471 6.8641,12.000962 5.46305,1.106154 10.38698,-2.697567 13.91888,-6.432291 -0.0571,3.692614 3.26813,6.62791 6.86971,6.594922 8.09849,0.461989 15.72727,-4.777728 19.21095,-11.936967 5.31773,-9.656525 5.94725,-22.173585 0.0227,-31.715791 -5.32482,-9.035061 -16.45606,-12.93717 -26.53078,-12.257032 -13.37669,0.658503 -26.11981,9.099581 -31.55455,21.409824 -5.36843,11.668944 -5.23943,26.316805 2.02081,37.169079 5.81327,8.79196 15.86548,14.59727 26.43018,14.9652 11.86204,0.93318 24.00136,-4.34521 31.23661,-13.82184 1.721,-2.22645 3.15891,-4.673216 4.27642,-7.25574 0,1.721632 0,3.443267 0,5.1649 7.05573,-0.58489 13.91967,-0.69321 21.00295,-0.0956 2.46039,0.90622 1.28405,-2.042097 1.54652,-3.465423 0.60587,-2.055275 -0.75059,-2.639763 -2.54394,-2.895156 -1.10986,-0.561552 -3.08871,-0.419938 -3.57526,-1.663903 -0.47093,-7.742578 -0.16866,-15.733498 -0.26463,-23.598314 0.0939,-8.640683 -0.009,-17.112162 1.00583,-25.684333 -1.29595,-0.51602 -2.62427,-2.676716 -4.00406,-1.480493 z m 62.49475,17.715439 c -6.43323,-0.259883 -13.43634,3.562658 -15.02365,10.116702 -1.20338,4.619103 1.51699,9.346883 5.52346,11.602161 3.69918,2.656549 8.56648,3.781078 11.52922,7.369378 1.51177,2.00444 0.23883,5.247846 -2.38234,5.299569 -3.30201,0.67484 -6.59436,-1.535478 -7.40248,-4.772345 -0.74145,-1.285658 -0.20495,-4.067999 -2.40017,-3.375974 -1.40491,0.339133 -4.16674,-0.705997 -4.64922,0.574139 -0.0417,2.067528 -0.0539,4.136347 -0.19604,6.200236 -1.09871,-0.777588 -1.79213,-3.889958 -3.20978,-2.818803 -1.32152,0.748273 -2.55657,2.006464 -4.08053,2.201934 -0.91764,-3.251092 -0.12258,-6.800005 -0.26985,-10.16547 -0.17185,-5.33044 1.09988,-11.026409 -1.15124,-16.065806 -2.46001,-5.252319 -9.03374,-6.383652 -14.23624,-5.576886 -4.09947,0.548786 -8.00125,2.008856 -11.75421,3.695623 -0.26722,3.652694 -0.8207,7.273908 -1.51414,10.868161 1.99033,0.221214 3.98118,0.437819 5.97244,0.650521 1.49763,-3.337657 3.36025,-7.885575 7.68937,-7.94636 2.0314,-0.276255 4.31944,0.812276 4.43402,3.073303 0.40489,1.372979 0.60498,2.811462 -1.21597,2.966361 -5.02215,2.358032 -10.36113,4.262518 -14.87222,7.548269 -5.56078,4.54165 -5.56761,14.517591 0.74585,18.399611 5.06041,3.137559 11.7589,1.712869 16.16933,-1.929021 0.93898,-0.518753 1.21477,1.819718 2.3262,2.19724 3.08319,2.26212 7.89076,1.92787 10.41894,-1.047723 1.45973,-1.29192 2.92117,-2.58191 4.37979,-3.875076 0.26863,1.452882 -1.43679,4.163643 0.67433,4.446066 6.81325,2.589483 15.24424,3.782603 21.55549,-0.688755 5.22529,-3.560343 7.18208,-11.416497 3.33865,-16.65968 -3.89073,-5.228777 -10.83671,-6.319042 -15.47982,-10.589239 -1.87447,-1.806351 0.22367,-4.532942 2.43336,-4.44942 3.31763,-0.597144 6.37589,2.27673 6.25894,5.586973 -0.32962,2.294632 2.64946,1.175441 4.06631,1.666579 2.27539,0.839602 2.66375,-0.6044 2.57644,-2.618022 0.29792,-3.185642 0.62616,-6.119921 1.15226,-9.198049 -3.62769,-1.493763 -7.44049,-2.726423 -11.4065,-2.686197 z m -105.19912,6.364998 c 2.88203,0.452412 2.55673,4.042557 2.12541,6.185543 -1.25307,6.941483 -4.66149,13.949961 -10.81208,17.765913 -1.59832,1.167411 -4.24228,0.754392 -4.55364,-1.474885 -0.49978,-4.513653 1.8042,-8.767107 3.61072,-12.765326 2.06725,-3.690139 4.35712,-7.943791 8.47436,-9.604693 0.37754,-0.08768 0.76781,-0.135104 1.15523,-0.106552 z m 72.49367,17.793953 c -0.0635,2.75194 0.19196,6.402327 -2.85261,7.712709 -1.93794,1.394406 -5.46368,2.101362 -6.56309,-0.663545 -1.24831,-2.685135 0.28265,-5.830757 2.93596,-6.936717 2.08594,-1.246436 4.27254,-2.313052 6.47974,-3.32579 0,1.071114 0,2.142228 0,3.213343 z" /><path
     id="rect5"
     style="fill:none;fill-opacity:1;stroke:#b2b2b2;stroke-width:1.70883;stroke-dasharray:none;stroke-opacity:1;paint-order:fill markers stroke"
     d="m 0.85441742,3.0525579 c 0,44.0310061 0,88.0620121 0,132.0930321 53.59200858,0 107.18402258,0 160.77603258,0 0,-44.696375 0,-89.392736 0,-134.0890957 -53.59201,0 -107.184024,0 -160.77603258,0 0,0.6653546 0,1.3307092 0,1.9960636 z" /><path
     id="rect6"
     style="fill:none;fill-opacity:1;stroke:#b2b2b2;stroke-width:1.58276;stroke-dasharray:none;stroke-opacity:1;paint-order:fill markers stroke"
     d="m 161.80631,2.7904423 c 1e-5,44.1393897 0,88.2787827 0,132.4181777 121.70561,0 243.41121,0 365.11683,0 0,-44.805749 0,-89.611494 0,-134.41723735 -121.70562,1e-8 -243.41122,0 -365.11683,0 0,0.66635305 1e-5,1.33270645 0,1.99905965 z" /><path
     id="rect7"
     style="fill:none;fill-opacity:1;stroke:#b2b2b2;stroke-width:1.84515;stroke-dasharray:none;stroke-opacity:1;paint-order:fill markers stroke"
     d="m 526.89508,2.9214191 c 0,44.0520009 0,88.1040009 0,132.1560009 62.25641,0 124.51283,0 186.76925,0 0,-44.718281 -10e-6,-89.436562 0,-134.154845 -62.25642,0 -124.51284,0 -186.76925,0 0,0.6662815 0,1.3325629 0,1.9988441 z" /><text
     xml:space="preserve"
     style="font-style:normal;font-variant:normal;font-weight:normal;font-stretch:normal;font-size:32px;font-family:'Courier New';-inkscape-font-specification:'Courier New, Normal';font-variant-ligatures:normal;font-variant-caps:normal;font-variant-numeric:normal;font-variant-east-asian:normal;writing-mode:lr-tb;direction:ltr;fill:#b2b2b2;fill-opacity:1;stroke:none;stroke-width:0.6;stroke-dasharray:none;stroke-opacity:1;paint-order:fill markers stroke"
     x="546.96954"
     y="61.148827"
     id="text12"><tspan
       sodipodi:role="line"
       id="tspan12"
       x="546.96954"
       y="61.148827">Explore</tspan><tspan
       sodipodi:role="line"
       x="546.96954"
       y="101.14883"
       id="tspan13">Better</tspan></text></svg>
