<svg xmlns="http://www.w3.org/2000/svg" viewBox="0 0 48 48" xmlns:xlink="http://www.w3.org/1999/xlink" xml:space="preserve" width="100%" height="100%"><path xmlns="http://www.w3.org/2000/svg" d="M25.14 34.58a2 2 0 0 0-2.82 0 2.2 2.2 0 0 0-.44.66 2.14 2.14 0 0 0 0 1.52 2.4 2.4 0 0 0 .44.66 2 2 0 0 0 .64.42 2 2 0 0 0 .78.16 2 2 0 0 0 1.84-2.76 1.8 1.8 0 0 0-.44-.66M40 17.88a2.6 2.6 0 0 0-.12-.54v-.18a2 2 0 0 0-.38-.56l-12-12a2 2 0 0 0-.56-.38h-.18A1.8 1.8 0 0 0 26.1 4H14a6 6 0 0 0-6 6v28a6 6 0 0 0 6 6h20a6 6 0 0 0 6-6zm-12-7.06L33.18 16H30a2 2 0 0 1-2-2zM36 38a2 2 0 0 1-2 2H14a2 2 0 0 1-2-2V10a2 2 0 0 1 2-2h10v6a6 6 0 0 0 6 6h6zM23.74 20a6 6 0 0 0-5.2 3A2 2 0 1 0 22 25a2 2 0 0 1 1.74-1 2 2 0 0 1 0 4 2 2 0 1 0 0 4 6 6 0 0 0 0-12"></path></svg>