<?xml version="1.0" encoding="UTF-8" standalone="no"?>
<svg
   viewBox="0 0 48 48"
   xml:space="preserve"
   width="100%"
   height="100%"
   version="1.1"
   id="svg1"
   sodipodi:docname="file.svg"
   inkscape:version="1.4.3 (0d15f75, 2025-12-25)"
   xmlns:inkscape="http://www.inkscape.org/namespaces/inkscape"
   xmlns:sodipodi="http://sodipodi.sourceforge.net/DTD/sodipodi-0.dtd"
   xmlns="http://www.w3.org/2000/svg"
   xmlns:svg="http://www.w3.org/2000/svg"><defs
     id="defs1" /><sodipodi:namedview
     id="namedview1"
     pagecolor="#ffffff"
     bordercolor="#000000"
     borderopacity="0.25"
     inkscape:showpageshadow="2"
     inkscape:pageopacity="0.0"
     inkscape:pagecheckerboard="0"
     inkscape:deskcolor="#d1d1d1"
     inkscape:zoom="17.8125"
     inkscape:cx="24.02807"
     inkscape:cy="24"
     inkscape:window-width="1821"
     inkscape:window-height="1057"
     inkscape:window-x="2011"
     inkscape:window-y="-8"
     inkscape:window-maximized="1"
     inkscape:current-layer="svg1" /><path
     d="M40 17.88a2.6 2.6 0 0 0-.12-.54v-.18a2 2 0 0 0-.38-.56l-12-12a2 2 0 0 0-.56-.38h-.18L26.12 4H14a6 6 0 0 0-6 6v28a6 6 0 0 0 6 6h20a6 6 0 0 0 6-6zm-12-7.06L33.18 16H28zM36 38a2 2 0 0 1-2 2H14a2 2 0 0 1-2-2V10a2 2 0 0 1 2-2h10v10a2 2 0 0 0 2 2h10z"
     id="path1"
     inkscape:label="outline" /><path
     d="m 14.88421,25.825375 h 2.986406 V 28.81178 H 14.88421 Z m 5.972811,0 h 2.986406 v 2.986405 h -2.986406 z m 8.95623,-0.09407 1.848585,-1.847092 1.582795,1.582795 -1.847092,1.848585 1.847092,1.848585 -1.582795,1.582795 -1.848585,-1.847092 -1.847092,1.847092 -1.584288,-1.582795 1.847092,-1.848585 -1.847092,-1.847092 1.582795,-1.584288 z"
     id="path1-8"
     sodipodi:nodetypes="ccccccccccccccccccccccc"
     inkscape:label="motif"
     style="stroke-width:0.746601" /></svg>
