<svg xmlns="http://www.w3.org/2000/svg" viewBox="0 0 48 48" xmlns:xlink="http://www.w3.org/1999/xlink" xml:space="preserve" width="100%" height="100%"><g xmlns="http://www.w3.org/2000/svg" transform="matrix(.24 0 0 .24 -191.04 -191.04)"><path d="m976.83 857.399-56.941-56.941A15.12 15.12 0 0 0 909.127 796h-83.196c-8.394 0-15.219 6.828-15.219 15.222V980.78c0 8.393 6.825 15.22 15.219 15.22h140.14c8.39 0 15.218-6.827 15.218-15.22V868.161a15.13 15.13 0 0 0-4.459-10.762m-7.154 123.381a3.61 3.61 0 0 1-3.604 3.609H825.931a3.61 3.61 0 0 1-3.605-3.609V811.22a3.61 3.61 0 0 1 3.605-3.604h79.409a3.936 3.936 0 0 1 3.936 3.936v42.937c0 7.25 5.876 13.126 13.123 13.126h43.342a3.934 3.934 0 0 1 3.936 3.936z"></path><path d="M847.949 831.658a3.79 3.79 0 0 1-3.793 3.793h-8.22a3.79 3.79 0 0 1-3.793-3.793v-8.22a3.793 3.793 0 0 1 3.793-3.793h8.22a3.793 3.793 0 0 1 3.793 3.793zm0 27.845a3.794 3.794 0 0 1-3.793 3.794h-8.22a3.794 3.794 0 0 1-3.793-3.794v-8.219a3.79 3.79 0 0 1 3.793-3.793h8.22a3.79 3.79 0 0 1 3.793 3.793zm0 27.845a3.79 3.79 0 0 1-3.793 3.793h-8.22a3.79 3.79 0 0 1-3.793-3.793v-8.22a3.793 3.793 0 0 1 3.793-3.793h8.22a3.79 3.79 0 0 1 3.793 3.793zm0 27.843a3.793 3.793 0 0 1-3.793 3.794h-8.22a3.793 3.793 0 0 1-3.793-3.794v-8.219a3.79 3.79 0 0 1 3.793-3.792h8.22a3.79 3.79 0 0 1 3.793 3.792zm0 27.846a3.793 3.793 0 0 1-3.793 3.793h-8.22a3.793 3.793 0 0 1-3.793-3.793v-8.219a3.79 3.79 0 0 1 3.793-3.794h8.22a3.79 3.79 0 0 1 3.793 3.794zm0 27.844a3.793 3.793 0 0 1-3.793 3.794h-8.22a3.793 3.793 0 0 1-3.793-3.794v-8.218a3.793 3.793 0 0 1 3.793-3.794h8.22a3.793 3.793 0 0 1 3.793 3.794zm111.879-83.533a3.79 3.79 0 0 1-3.793 3.793h-8.221a3.79 3.79 0 0 1-3.793-3.793v-8.22a3.793 3.793 0 0 1 3.793-3.793h8.221a3.79 3.79 0 0 1 3.793 3.793zm0 27.843a3.79 3.79 0 0 1-3.793 3.794h-8.221a3.793 3.793 0 0 1-3.793-3.794v-8.219a3.79 3.79 0 0 1 3.793-3.792h8.221a3.79 3.79 0 0 1 3.793 3.792zm0 27.846a3.79 3.79 0 0 1-3.793 3.793h-8.221a3.793 3.793 0 0 1-3.793-3.793v-8.219a3.79 3.79 0 0 1 3.793-3.794h8.221a3.79 3.79 0 0 1 3.793 3.794zm0 27.844a3.79 3.79 0 0 1-3.793 3.794h-8.221a3.793 3.793 0 0 1-3.793-3.794v-8.218a3.793 3.793 0 0 1 3.793-3.794h8.221a3.79 3.79 0 0 1 3.793 3.794zm-93.161-18.456a7.401 7.401 0 0 0 11.103 6.41l47.656-27.515a7.4 7.4 0 0 0 0-12.82l-47.656-27.515a7.403 7.403 0 0 0-11.103 6.41z"></path></g></svg>