<?xml version="1.0" encoding="UTF-8" standalone="no"?>
<svg
   viewBox="0 0 48 48"
   xml:space="preserve"
   width="100%"
   height="100%"
   version="1.1"
   id="svg1"
   xmlns="http://www.w3.org/2000/svg"
   xmlns:svg="http://www.w3.org/2000/svg"><defs
     id="defs1" /><path
     d="M40 17.88a2.6 2.6 0 0 0-.12-.54v-.18a2 2 0 0 0-.38-.56l-12-12a2 2 0 0 0-.56-.38h-.18L26.12 4H14a6 6 0 0 0-6 6v28a6 6 0 0 0 6 6h20a6 6 0 0 0 6-6zm-12-7.06L33.18 16H28zM36 38a2 2 0 0 1-2 2H14a2 2 0 0 1-2-2V10a2 2 0 0 1 2-2h10v10a2 2 0 0 0 2 2h10z"
     id="path1" /></svg>
