<svg xmlns="http://www.w3.org/2000/svg" viewBox="0 0 48 48" xmlns:xlink="http://www.w3.org/1999/xlink" xml:space="preserve" width="100%" height="100%"><path xmlns="http://www.w3.org/2000/svg" d="M38 4H10a6 6 0 0 0-6 6v2.34a6 6 0 0 0 .5 2.4v.12a5.6 5.6 0 0 0 1.18 1.72L18 28.82V42a2 2 0 0 0 .94 1.7A2 2 0 0 0 20 44a2 2 0 0 0 .9-.22l8-4A2 2 0 0 0 30 38v-9.18l12.24-12.24a5.6 5.6 0 0 0 1.18-1.72v-.12a6 6 0 0 0 .58-2.4V10a6 6 0 0 0-6-6M26.58 26.58A2 2 0 0 0 26 28v8.76l-4 2V28a2 2 0 0 0-.58-1.42L10.82 16h26.36zM40 12H8v-2a2 2 0 0 1 2-2h28a2 2 0 0 1 2 2z"></path></svg>