<svg xmlns="http://www.w3.org/2000/svg" viewBox="0 0 48 48" xmlns:xlink="http://www.w3.org/1999/xlink" xml:space="preserve" width="100%" height="100%"><path xmlns="http://www.w3.org/2000/svg" d="M38.44 12H25.32a2 2 0 0 0 0 4h13.12A1.56 1.56 0 0 1 40 17.56v1.56h-7.56a2 2 0 1 0 0 4h4.74l-1.4 1.38a2 2 0 0 0 0 2.84 2 2 0 0 0 2.84 0l3.76-3.76a5 5 0 0 0 1.08-1.6v-.2a5.2 5.2 0 0 0 .54-2.14v-2A5.58 5.58 0 0 0 38.44 12M7.42 4.58a2.008 2.008 0 0 0-2.84 2.84l5.7 5.68A5.46 5.46 0 0 0 8 17.56v2a5.3 5.3 0 0 0 .48 2.2v.12a5.2 5.2 0 0 0 1.08 1.62l10.82 10.8V42a2 2 0 0 0 .94 1.7 2 2 0 0 0 1.06.3 2 2 0 0 0 .9-.22l7.12-3.56a2 2 0 0 0 1.1-1.78v-4l9.02 9.04a2 2 0 0 0 2.84 0 2 2 0 0 0 0-2.84zM12 17.56a1.52 1.52 0 0 1 1-1.44l.18-.12 3.12 3.12H12zm16.14 14.58a2 2 0 0 0-.58 1.42v3.64l-3.12 1.56v-5.2a2 2 0 0 0-.58-1.42l-9.04-9.02h5.48l8.44 8.44z"></path></svg>