<?xml version="1.0" encoding="UTF-8" standalone="no"?>
<svg
   viewBox="0 0 48 48"
   xml:space="preserve"
   width="100%"
   height="100%"
   version="1.1"
   id="svg1"
   sodipodi:docname="atlas-icon.svg"
   inkscape:version="1.4.3 (0d15f75, 2025-12-25)"
   xmlns:inkscape="http://www.inkscape.org/namespaces/inkscape"
   xmlns:sodipodi="http://sodipodi.sourceforge.net/DTD/sodipodi-0.dtd"
   xmlns="http://www.w3.org/2000/svg"
   xmlns:svg="http://www.w3.org/2000/svg"><defs
     id="defs1" /><sodipodi:namedview
     id="namedview1"
     pagecolor="#ffffff"
     bordercolor="#000000"
     borderopacity="0.25"
     inkscape:showpageshadow="2"
     inkscape:pageopacity="0.0"
     inkscape:pagecheckerboard="0"
     inkscape:deskcolor="#d1d1d1"
     inkscape:zoom="17.354167"
     inkscape:cx="27.39976"
     inkscape:cy="24"
     inkscape:window-width="1796"
     inkscape:window-height="1051"
     inkscape:window-x="115"
     inkscape:window-y="-9"
     inkscape:window-maximized="1"
     inkscape:current-layer="svg1" /><path
     d="m 12,24 h 4 v 4 h -4 z m 8,0 h 4 v 4 h -4 z m 11.996,-0.126 2.476,-2.474 2.12,2.12 -2.474,2.476 2.474,2.476 -2.12,2.12 -2.476,-2.474 -2.474,2.474 L 27.4,28.472 29.874,25.996 27.4,23.522 29.52,21.4 Z"
     id="path1"
     sodipodi:nodetypes="ccccccccccccccccccccccc"
     inkscape:label="path1" /><path
     d="M 38,11.000022 H 25.44 L 24.8,9.0000223 a 6,6 0 0 0 -5.68,-4 H 10 A 6,6 0 0 0 4,11.000022 v 26 a 6,6 0 0 0 6,6 h 28 a 6,6 0 0 0 6,-6 v -20 a 6,6 0 0 0 -6,-6 m 2,26 a 2,2 0 0 1 -2,2 H 10 a 2,2 0 0 1 -2,-2 v -26 a 2,2 0 0 1 2,-1.9999997 h 9.12 a 2,2 0 0 1 1.9,1.3599997 l 1.08,3.28 a 2,2 0 0 0 1.9,1.36 h 14 a 2,2 0 0 1 2,2 z"
     id="path1-8"
     style="display:inline" /></svg>
