<svg xmlns="http://www.w3.org/2000/svg" viewBox="0 0 48 48" xmlns:xlink="http://www.w3.org/1999/xlink" xml:space="preserve" width="100%" height="100%"><path xmlns="http://www.w3.org/2000/svg" d="M25.14 32.6a1.2 1.2 0 0 0-.3-.26l-.34-.18-.38-.16a2 2 0 0 0-1.8.56 2 2 0 0 0-.44.64 2 2 0 0 0-.14.78 2 2 0 0 0 .58 1.4 2 2 0 0 0 .64.44 2 2 0 0 0 .78.14 2 2 0 0 0 .76-.14 2 2 0 0 0 .64-.44 2 2 0 0 0 .6-1.4 2 2 0 0 0-.16-.78 1.8 1.8 0 0 0-.44-.6M23.74 18a6 6 0 0 0-5.2 3A2 2 0 1 0 22 23a2 2 0 0 1 3.74 1 2 2 0 0 1-2 2 2 2 0 1 0 0 4 6 6 0 0 0 0-12M38 11H25.44l-.64-2a6 6 0 0 0-5.68-4H10a6 6 0 0 0-6 6v26a6 6 0 0 0 6 6h28a6 6 0 0 0 6-6V17a6 6 0 0 0-6-6m2 26a2 2 0 0 1-2 2H10a2 2 0 0 1-2-2V11a2 2 0 0 1 2-2h9.12a2 2 0 0 1 1.9 1.36l1.08 3.28A2 2 0 0 0 24 15h14a2 2 0 0 1 2 2z"></path></svg>