<svg xmlns="http://www.w3.org/2000/svg" viewBox="0 0 48 48" xmlns:xlink="http://www.w3.org/1999/xlink" xml:space="preserve" width="100%" height="100%"><path xmlns="http://www.w3.org/2000/svg" d="M38 8H10a6 6 0 0 0-6 6v20a6 6 0 0 0 6 6h28a6 6 0 0 0 6-6V14a6 6 0 0 0-6-6M10 36a2 2 0 0 1-2-2v-4.84l6.6-6.58a2 2 0 0 1 2.8 0L30.82 36zm30-2a2 2 0 0 1-2 2h-1.54l-7.62-7.66 1.76-1.76a2 2 0 0 1 2.8 0l6.6 6.58zm0-6.48-3.76-3.74a6.12 6.12 0 0 0-8.48 0L26 25.54l-5.76-5.76a6.12 6.12 0 0 0-8.48 0L8 23.52V14a2 2 0 0 1 2-2h28a2 2 0 0 1 2 2z"></path></svg>