<svg xmlns="http://www.w3.org/2000/svg" viewBox="0 0 48 48" xmlns:xlink="http://www.w3.org/1999/xlink" xml:space="preserve" width="100%" height="100%"><path xmlns="http://www.w3.org/2000/svg" d="m43.42 40.58-1.86-1.86-.18-.2-.12-.14-1-1-.26-.14-10.36-10.4-.18-.16-6.4-6.42-.2-.26L7.42 4.58a2.008 2.008 0 0 0-2.84 2.84l2 2A6 6 0 0 0 6 12v24a6 6 0 0 0 6 6h24a5.8 5.8 0 0 0 2.54-.62h.1l1.9 2a2 2 0 0 0 2.84 0 2 2 0 0 0 .04-2.8M10 12.82l6.48 6.48a5.6 5.6 0 0 0-1.34.96L10 25.42zM12 38a2 2 0 0 1-2-2v-4.92l8-8a1.62 1.62 0 0 1 2.2 0L35.18 38zm7.32-28H36a2 2 0 0 1 2 2v11.88a2.008 2.008 0 1 0-2.84 2.84l3.48 3.48a2 2 0 0 0 2.84 0 2 2 0 0 0 .58-1.44V12a6 6 0 0 0-6-6H19.32a2 2 0 0 0 0 4"></path></svg>