<svg xmlns="http://www.w3.org/2000/svg" viewBox="0 0 48 48" xmlns:xlink="http://www.w3.org/1999/xlink" xml:space="preserve" width="100%" height="100%"><path xmlns="http://www.w3.org/2000/svg" d="M40 8a2 2 0 0 0 1.42-3.4 2 2 0 0 0-2.84 0 2 2 0 0 0-.42.64A1.7 1.7 0 0 0 38 6a2 2 0 0 0 2 2m0 18a2 2 0 0 0-2 2v.78l-2.96-2.96a5.54 5.54 0 0 0-7.86 0l-1.4 1.4-4.96-4.98a5.72 5.72 0 0 0-7.86 0L10 25.2V14a2 2 0 0 1 2-2h20a2 2 0 0 0 0-4H12a6 6 0 0 0-6 6v24a6 6 0 0 0 6 6h24a6 6 0 0 0 6-6V28a2 2 0 0 0-2-2M12 40a2 2 0 0 1-2-2v-7.14l5.8-5.8a1.58 1.58 0 0 1 2.18 0l6.34 6.34L32.9 40zm26-2a2 2 0 0 1-.36 1.06L28.62 30l1.4-1.4a1.56 1.56 0 0 1 2.2 0L38 34.44zm2-28a2 2 0 0 0-2 2v8a2 2 0 0 0 4 0v-8a2 2 0 0 0-2-2"></path></svg>