<svg xmlns="http://www.w3.org/2000/svg" viewBox="0 0 48 48" xmlns:xlink="http://www.w3.org/1999/xlink" xml:space="preserve" width="100%" height="100%"><path xmlns="http://www.w3.org/2000/svg" d="M41.08 4.92A10 10 0 1 0 44 12a10 10 0 0 0-2.92-7.08M28 12a6 6 0 0 1 6-6 6 6 0 0 1 2.58.6l-8 8A6 6 0 0 1 28 12m10.24 4.24a6.16 6.16 0 0 1-6.8 1.14l8-8A6 6 0 0 1 40 12a6 6 0 0 1-1.76 4.24M38 26a2 2 0 0 0-2 2v.78l-2.96-2.98a5.74 5.74 0 0 0-7.86 0l-1.4 1.42-4.96-4.98a5.74 5.74 0 0 0-7.86 0L8 25.22V14a2 2 0 0 1 2-2h8a2 2 0 0 0 0-4h-8a6 6 0 0 0-6 6v24a6 6 0 0 0 6 6h24a6 6 0 0 0 1.9-.34h.18A6 6 0 0 0 40 38.88a3 3 0 0 0 0-.44V28a2 2 0 0 0-2-2M10 40a2 2 0 0 1-2-2v-7.14l5.8-5.78a1.58 1.58 0 0 1 2.18 0l6.38 6.36L30.92 40zm26-2a2 2 0 0 1-.36 1.08L26.6 30l1.42-1.4a1.58 1.58 0 0 1 2.18 0l5.8 5.82z"></path></svg>