<svg xmlns="http://www.w3.org/2000/svg" viewBox="0 0 48 48" xmlns:xlink="http://www.w3.org/1999/xlink" xml:space="preserve" width="100%" height="100%"><path xmlns="http://www.w3.org/2000/svg" fill="currentColor" fill-rule="evenodd" d="M15 34.5a1.5 1.5 0 0 1 1.5-1.5h27a1.5 1.5 0 0 1 0 3h-27a1.5 1.5 0 0 1-1.5-1.5m0-12a1.5 1.5 0 0 1 1.5-1.5h27a1.5 1.5 0 0 1 0 3h-27a1.5 1.5 0 0 1-1.5-1.5m0-12A1.5 1.5 0 0 1 16.5 9h27a1.5 1.5 0 0 1 0 3h-27a1.5 1.5 0 0 1-1.5-1.5m-3.438-4.062a1.5 1.5 0 0 1 0 2.124l-4.5 4.5a1.5 1.5 0 0 1-2.124 0l-1.5-1.5a1.502 1.502 0 1 1 2.124-2.124L6 9.879l3.438-3.441a1.5 1.5 0 0 1 2.124 0m0 12a1.5 1.5 0 0 1 0 2.124l-4.5 4.5a1.5 1.5 0 0 1-2.124 0l-1.5-1.5a1.502 1.502 0 1 1 2.124-2.124l.438.441 3.438-3.441a1.5 1.5 0 0 1 2.124 0m0 12a1.5 1.5 0 0 1 0 2.124l-4.5 4.5a1.5 1.5 0 0 1-2.124 0l-1.5-1.5a1.502 1.502 0 0 1 2.124-2.124l.438.441 3.438-3.441a1.5 1.5 0 0 1 2.124 0"></path></svg>