<svg xmlns="http://www.w3.org/2000/svg" viewBox="0 0 48 48" xmlns:xlink="http://www.w3.org/1999/xlink" xml:space="preserve" width="100%" height="100%"><path xmlns="http://www.w3.org/2000/svg" d="M41.34 11.7a5.26 5.26 0 0 0-5.34 0l-8 4.6a5.34 5.34 0 0 0-8-4.62l-13.34 7.7a5.34 5.34 0 0 0 0 9.24L20 36.32a5.32 5.32 0 0 0 5.34 0A5.3 5.3 0 0 0 28 31.7l8 4.62a5.4 5.4 0 0 0 2.66.72 5.2 5.2 0 0 0 2.68-.74A5.26 5.26 0 0 0 44 31.7V16.3a5.26 5.26 0 0 0-2.66-4.6M24 31.7a1.32 1.32 0 0 1-.66 1.16 1.38 1.38 0 0 1-1.34 0l-13.34-7.7a1.34 1.34 0 0 1 0-2.32L22 15.14a1.34 1.34 0 0 1 1.34 0A1.32 1.32 0 0 1 24 16.3zm16 0a1.34 1.34 0 0 1-2 1.14l-10-5.76v-6.16l10-5.76a1.34 1.34 0 0 1 2 1.14z"></path></svg>