<svg xmlns="http://www.w3.org/2000/svg" viewBox="0 0 48 48" xmlns:xlink="http://www.w3.org/1999/xlink" xml:space="preserve" width="100%" height="100%"><path xmlns="http://www.w3.org/2000/svg" d="M39.8 25.32a2 2 0 0 1 0-2.64l2.56-2.88a2 2 0 0 0 .24-2.34l-4-6.92a2 2 0 0 0-2.14-.96l-3.76.76a2 2 0 0 1-2.3-1.32l-1.22-3.66A2 2 0 0 0 27.28 4h-8a2 2 0 0 0-2 1.36l-1.12 3.66a2 2 0 0 1-2.3 1.32L10 9.58a2 2 0 0 0-2 .96l-4 6.92a2 2 0 0 0 .2 2.34l2.54 2.88a2 2 0 0 1 0 2.64L4.2 28.2a2 2 0 0 0-.2 2.34l4 6.92a2 2 0 0 0 2.14.96l3.76-.76a2 2 0 0 1 2.3 1.32l1.22 3.66a2 2 0 0 0 2 1.36h8a2 2 0 0 0 1.9-1.36l1.22-3.66a2 2 0 0 1 2.3-1.32l3.76.76a2 2 0 0 0 2.14-.96l4-6.92a2 2 0 0 0-.24-2.34zM36.82 28l1.6 1.8-2.56 4.44-2.36-.48a6 6 0 0 0-6.9 4L25.84 40h-5.12L20 37.72a6 6 0 0 0-6.9-4l-2.36.48-2.6-4.42 1.6-1.8a6 6 0 0 0 0-8l-1.6-1.8 2.56-4.4 2.36.48a6 6 0 0 0 6.9-4L20.72 8h5.12l.76 2.28a6 6 0 0 0 6.9 4l2.36-.48 2.56 4.44-1.6 1.8a6 6 0 0 0 0 7.96M23.28 16a8 8 0 1 0 8 8 8 8 0 0 0-8-8m0 12a4 4 0 1 1 4-4 4 4 0 0 1-4 4" style="fill: rgb(0, 0, 0);"></path></svg>